<?xml version="1.0" encoding="UTF-8" standalone="no"?>
<svg
   xmlns:dc="http://purl.org/dc/elements/1.1/"
   xmlns:cc="http://creativecommons.org/ns#"
   xmlns:rdf="http://www.w3.org/1999/02/22-rdf-syntax-ns#"
   xmlns:svg="http://www.w3.org/2000/svg"
   xmlns="http://www.w3.org/2000/svg"
   viewBox="0 0 24 26.666668"
   height="26.666668"
   width="24"
   xml:space="preserve"
   id="svg2"
   version="1.1"><metadata
     id="metadata8"><rdf:RDF><cc:Work
         rdf:about=""><dc:format>image/svg+xml</dc:format><dc:type
           rdf:resource="http://purl.org/dc/dcmitype/StillImage" /></cc:Work></rdf:RDF></metadata><defs
     id="defs6"><clipPath
       id="clipPath18"
       clipPathUnits="userSpaceOnUse"><path
         id="path16"
         d="M 0,20 H 18 V 0 H 0 Z" /></clipPath></defs><g
     transform="matrix(1.3333333,0,0,-1.3333333,0,26.666667)"
     id="g10"><g
       id="g12"><g
         clip-path="url(#clipPath18)"
         id="g14"><g
           transform="translate(14.3672,1.9453)"
           id="g20"><path
             id="path22"
             style="fill:#000000;fill-opacity:1;fill-rule:nonzero;stroke:none"
             d="m 0,0 h -10.734 c -0.873,0 -1.596,0.527 -1.624,1.181 l 1.135,10.874 h 1.201 v -1.337 c 0,-0.536 0.45,-0.973 1.004,-0.973 0.553,0 1.004,0.437 1.004,0.973 v 1.212 h 5.291 v -1.212 c 0,-0.536 0.45,-0.973 1.004,-0.973 0.553,0 1.002,0.437 1.002,0.973 v 1.337 H 0.486 L 1.625,1.181 C 1.596,0.527 0.873,0 0,0 m -5.367,16.109 c 1.284,0 2.373,-1.042 2.599,-2.23 h -5.199 c 0.227,1.188 1.316,2.23 2.6,2.23 M 3.624,1.33 2.398,12.995 c -0.046,0.496 -0.484,1.06 -0.998,1.06 h -2.14 c -0.108,1.04 -0.585,1.959 -1.364,2.702 -0.875,0.837 -2.035,1.298 -3.263,1.298 -1.229,0 -2.389,-0.461 -3.264,-1.298 -0.778,-0.743 -1.255,-1.663 -1.363,-2.702 h -2.14 c -0.523,0 -0.952,-0.556 -0.999,-1.06 L -14.36,1.312 -14.363,1.287 c -0.001,-0.015 -0.004,-0.039 -0.004,-0.066 0,-1.746 1.63,-3.166 3.633,-3.166 H 0 c 2.003,0 3.633,1.42 3.633,3.166 0,0.023 0,0.062 -0.009,0.109" /></g></g></g></g></svg>